<?xml version="1.0" encoding="UTF-8" standalone="no"?>
<svg
   version="1.1"
   id="Layer_1"
   x="0px"
   y="0px"
   viewBox="0 0 2715.6 5002"
   style="enable-background:new 0 0 2715.6 5002;"
   xml:space="preserve"
   sodipodi:docname="nun-black.svg"
   inkscape:version="1.2.2 (732a01da63, 2022-12-09)"
   xmlns:inkscape="http://www.inkscape.org/namespaces/inkscape"
   xmlns:sodipodi="http://sodipodi.sourceforge.net/DTD/sodipodi-0.dtd"
   xmlns="http://www.w3.org/2000/svg"
   xmlns:svg="http://www.w3.org/2000/svg"><defs
   id="defs275">
	
	
	
	
	
	
	
	
	
	
	
	
	
	
	
	
	
	
	
	
	
	
	
	
	
	
	
	
	
	
	
	
	
	
	
	
	
	
	
	
	
	
	
	
	
	
	
	
	
	
	
	
	
	
	
	
	
	
	
	
	
	
	
	
	
	
	
	
	
	
	
	
	
	
	
	
	
	
	
	
	
	
	
	
	
	
	
	
	
	
	
	
	
	
	
	
	
	
	
	
	
	
	
	
	
	
	
	
	
	
	
	
	
	
	
	
	
	
	
	
	
	
	
	
	
	
	
	
	
	
	
	
	
</defs><sodipodi:namedview
   id="namedview273"
   pagecolor="#ffffff"
   bordercolor="#666666"
   borderopacity="1.0"
   inkscape:showpageshadow="2"
   inkscape:pageopacity="0.0"
   inkscape:pagecheckerboard="0"
   inkscape:deskcolor="#d1d1d1"
   showgrid="false"
   inkscape:zoom="0.38304679"
   inkscape:cx="1234.8361"
   inkscape:cy="2054.5793"
   inkscape:current-layer="Layer_1" />
<style
   type="text/css"
   id="style2">
	.st0{opacity:0.11;fill:#010101;stroke:#010101;stroke-width:2;enable-background:new    ;}
	.st1{opacity:0.5;fill:#070707;stroke:#070707;stroke-width:2;enable-background:new    ;}
	.st2{fill:#0F0F10;stroke:#0F0F10;stroke-width:2;}
	.st3{fill:#272727;stroke:#272727;stroke-width:2;}
	.st4{fill:#C0C0C0;stroke:#C0C0C0;stroke-width:2;}
	.st5{fill:#E6E6E5;stroke:#E6E6E5;stroke-width:2;}
	.st6{fill:#F4CFAC;stroke:#F4CFAC;stroke-width:2;}
	.st7{fill:#F7DFC7;stroke:#F7DFC7;stroke-width:2;}
	.st8{fill:#5E3116;stroke:#5E3116;stroke-width:2;}
	.st9{fill:#8B5D38;stroke:#8B5D38;stroke-width:2;}
	.st10{fill:#131212;stroke:#131212;stroke-width:2;}
	.st11{fill:#FFFFFF;stroke:#FFFFFF;stroke-width:2;}
	.st12{opacity:0.47;fill:#060607;stroke:#060607;stroke-width:2;enable-background:new    ;}
	.st13{opacity:0.51;fill:#070707;stroke:#070707;stroke-width:2;enable-background:new    ;}
	.st14{opacity:0.49;fill:#070707;stroke:#070707;stroke-width:2;enable-background:new    ;}
	.st15{fill:#606060;stroke:#606060;stroke-width:2;}
	.st16{fill:#C2C2C2;stroke:#C2C2C2;stroke-width:2;}
	.st17{fill:#7E7E7E;stroke:#7E7E7E;stroke-width:2;}
	.st18{fill:#B0B0B0;stroke:#B0B0B0;stroke-width:2;}
	.st19{opacity:0.41;fill:#050506;stroke:#050506;stroke-width:2;enable-background:new    ;}
	.st20{opacity:0.57;fill:#080808;stroke:#080808;stroke-width:2;enable-background:new    ;}
	.st21{stroke:#000000;stroke-width:2;}
	.st22{opacity:0.51;fill:#030303;stroke:#030303;stroke-width:2;enable-background:new    ;}
	.st23{opacity:0.75;stroke:#000000;stroke-width:2;enable-background:new    ;}
</style>
<path
   d="m 2419.3,2886.1 c 0,13.8 -2,127.5 -2.9,141.3 -0.2,2.7 -1.2,6 1,8.2 159.1,212.1 96.4,414.1 -25.9,460.8 -101.8,38.9 -201.4,-49.1 -220.6,-156.1 -3.6,1.2 -6.7,3.3 -10.1,5 -30.5,15.3 -66.4,15.4 -92.5,-6.8 -34.9,-29.8 -39.9,-89.6 -27.4,-135.1 17.8,-64.6 68.8,-119 121.4,-160.2 0.4,-10.6 -0.2,-121.2 -0.2,-131.8 19,-2.3 38,-3.9 57.1,-5.8 11.2,-1.1 22.3,-3.3 33.6,-3.1 -7,1.2 -14.1,1.3 -21.1,2.4 0.3,5.6 0.5,111.3 0.5,117 26.1,-2.2 103.2,-9.6 115.5,-11.2 0.3,-5.7 0.7,-111.4 1.4,-117.1 -9.3,-0.4 -18.5,2.2 -27.8,2.1 5.1,-1 1.6,-0.9 98,-9.6 z"
   id="path246"
   style="font-variation-settings:normal;opacity:1;vector-effect:none;fill:#8b5d38;fill-opacity:1;stroke:none;stroke-width:2;stroke-linecap:butt;stroke-linejoin:miter;stroke-miterlimit:4;stroke-dasharray:none;stroke-dashoffset:0;stroke-opacity:1;-inkscape-stroke:none;stop-color:#000000;stop-opacity:1"
   sodipodi:nodetypes="cccccccccccccccccc" /><path
   d="m 264.3,2884.5 c 23.5,2.4 46.9,5 70.4,7.6 0.2,6.2 0.8,112.4 1.4,118.6 26.9,3.1 103.8,10.4 115.3,11.2 0.1,-5.7 0.3,-111.4 0.3,-117.2 0.4,0 68,7.3 69.9,7.6 -0.3,36.1 -1.2,129.5 1.7,132.6 51.8,39.8 103.4,96.7 120,160.4 10.2,39 5.5,78.2 -6,103.4 -17.5,38.1 -54.2,56.3 -98.3,43.1 -9.2,-2.7 -17.6,-7.2 -26,-11.7 -16.1,88.2 -80.5,151 -145,163.1 C 214.3,3532 68.8,3299 267.4,3033.8 c 0.6,-7.1 -1.5,-14.3 -1.6,-21.5 -0.1,-9.2 -1.6,-118.4 -1.5,-127.8 z"
   id="path244"
   style="font-variation-settings:normal;opacity:1;vector-effect:none;fill:#8b5d38;fill-opacity:1;stroke:none;stroke-width:2;stroke-linecap:butt;stroke-linejoin:miter;stroke-miterlimit:4;stroke-dasharray:none;stroke-dashoffset:0;stroke-opacity:1;-inkscape-stroke:none;stop-color:#000000;stop-opacity:1"
   sodipodi:nodetypes="ccccccccccccccc" /><path
   id="path254"
   class="st6"
   d="m 2363.8,3081 c 50.2,67.5 87.7,153.3 76.8,236.3 -12.7,97.4 -92.4,157.6 -160.9,88.8 -33.7,-33.9 -44.3,-77.6 -43.9,-125.8 0.1,-9.7 1,-19.3 1.1,-29 0.2,-11.3 -5,-22.5 -13.8,-29.6 -13.4,-10.8 -34.7,-10.4 -48,4.1 -7.1,7.8 -9.8,18.2 -14.8,27.3 -7.6,13.8 -19.9,25.3 -34.6,31.3 -3.8,1.5 -8.3,2.3 -12.2,1 -5.2,-6.6 -7,-15.1 -8.2,-23.2 -0.4,-6.3 -1.6,-12.6 -0.5,-18.9 0.1,-12.1 3.8,-23.9 8.1,-35.1 12.8,-33.2 36.9,-60.7 62.7,-84.7 9.2,-8.6 18.8,-16.8 28.9,-24.3 2.5,-1.9 4.9,-4.3 8,-5 82.6,-6.9 146.3,-14.8 151.3,-13.2 z m -14.7,-187.3 c -0.7,5.7 -1,111.4 -1.4,117.1 -6.2,0.8 -69.5,7.4 -115.5,11.2 -0.1,-5.7 -0.3,-111.3 -0.5,-117 7.6,-1.2 110,-11.7 117.4,-11.3 z"
   sodipodi:nodetypes="cccccccccccccccccccccc"
   style="stroke:none" /><path
   class="st9"
   d="m 915.5,4698.1 c 124,0.8 247.9,1.1 371.9,1.1 -1.3,11.1 -1.9,122.2 -3.2,133.4 -20.9,-0.4 -357.6,0.2 -366.5,-0.3 -1.5,-1.3 -0.9,-3.6 -1.1,-5.2 0.2,-9.7 -0.6,-119.3 -1.1,-129 z"
   id="path256"
   sodipodi:nodetypes="cccccc"
   style="stroke:none" /><path
   class="st9"
   d="m 1386.2,4699.2 c 123.1,-0.1 246.2,-0.5 369.3,-1.1 -0.1,9 -0.6,117.9 -0.5,126.9 0,2.5 -0.3,5 -0.7,7.6 h -364.9 c -1.7,-11.1 -1.8,-122.3 -3.2,-133.4 z"
   id="path258"
   sodipodi:nodetypes="cccccc"
   style="stroke:none" /><path
   class="st21"
   d="m 942.3,4832.6 c 102.6,-0.2 205.3,0 307.9,-0.1 0.2,44.2 -0.8,88.4 0.1,132.6 0.2,10.5 -4.7,20.9 -12.7,27.7 -5.1,4.3 -11.5,6.6 -17.9,7.8 -19.3,-2.8 -445,-2 -459.6,-0.1 -3.6,-1 -7.4,-1.6 -10.7,-3.3 -8.9,-4.4 -15.7,-12.6 -18.5,-22.1 -0.6,-6.1 -0.6,-12.2 -0.1,-18.3 2.6,-9.3 9.1,-17.6 17.7,-22.1 64.8,-33.5 129.1,-68.2 193.8,-102.1 z"
   id="path260"
   style="stroke:none" /><path
   class="st21"
   d="m 1422.5,4832.5 308.6,0.1 c 18.3,10.5 142.7,74.9 194.4,102.9 14,7.6 21,25.3 16.2,40.5 -4.1,13 -15.9,22.9 -29.3,24.7 -6.7,-1.4 -440.1,-3.4 -459.5,-0.1 -12,-1.8 -22.9,-9.9 -27.6,-21.2 -3.2,-6.6 -3.4,-1.5 -2.8,-146.9 z"
   id="path262"
   style="stroke:none" />
<path
   id="path252"
   class="st6"
   d="m 320.2,3080.6 c 6.9,0.2 129.5,11.8 148.7,13.5 4.1,-0.3 7.2,2.8 10.2,5.1 28.5,22.3 55.2,47.6 75.1,77.9 19,28.9 31.9,64.8 21.3,97.6 -1.3,4 -2.8,8.2 -6,11 -7.3,1.5 -14.3,-2.1 -20.3,-5.7 -10.2,-6.1 -18.6,-15 -24.9,-25.1 -3.9,-6.2 -5.9,-13.3 -9.4,-19.6 -11,-22.7 -39.2,-27.6 -56.7,-11.7 -8.2,7.5 -12.2,18.8 -11.7,29.7 1.1,24.2 11.1,102.4 -45.8,155.8 -70.6,66.3 -149.8,-1.4 -158.6,-99.9 -7.2,-81.3 29.4,-163 78.1,-228.6 z m 14.5,-188.5 c 39,4.2 78,8.5 117,12.7 0,5.7 -0.1,111.4 -0.3,117.2 -9,-0.7 -81.2,-7.3 -115.3,-11.2 -0.6,-6.3 -1.2,-112.5 -1.4,-118.7 z"
   sodipodi:nodetypes="ccccccccccccccccccc"
   style="stroke:none" /><path
   d="m 1475.2,5 c 729.6,55.5 1003.9,622.3 1064,1348.5 0,12.5 10.5,123 8.7,141.2 0.2,-2.3 0.5,-4.6 0.8,-6.9 0.1,14 1.8,27.9 1.2,41.9 l 0.9,-3.9 c -0.2,22.3 1.8,44.6 2.4,66.9 0.3,-3 0.6,-5.9 0.7,-8.9 -0.1,4.6 -0.5,9.2 -0.3,13.9 0.7,19.4 4.4,94.6 4.3,98.1 1.9,42.7 12.7,139.8 18.3,181.9 46.8,348.8 133.6,605.5 138,630.3 -56.3,-6.6 -150.4,-12 -294.7,-51.3 45.7,126 73,255 76,391.7 0.4,16.3 1.2,32.7 0.9,49 -0.5,25.3 -2.6,79.4 -2.5,81.2 -0.1,0 -74.7,7.4 -74.8,7.4 -45.7,5 -86.6,7.2 -98,9.7 -13.8,1.2 -59.6,5.6 -68.6,6.8 -6.1,-0.1 -123.3,12.7 -150.9,14.6 4.6,-48 6.4,-69.7 4.3,-119.8 -2.8,-67.8 -9.9,-94.7 -10.2,-106.7 -0.3,0.5 -0.5,1 -0.7,1.5 -6.3,-53.9 -36.3,-141.2 -54.2,-169.9 -0.1,102 7.4,1649.5 0,2137.7 -0.3,17.2 -13.2,31.5 -30.6,34.2 -64.7,6.3 -1240.6,1.7 -1315.6,1.3 -8.7,-0.6 -17.9,-1.1 -25.8,-5.5 -8.3,-4.7 -14.7,-12.6 -17,-21.8 -3.3,-13.4 0.5,-1983.1 0.2,-2132.9 -4.7,7.6 -8,16 -11.6,24.2 -30.6,68.9 -43.64701,158.1513 -52.8,218.7 -9.15299,60.5487 -0.49235,93.0105 -0.71156,141.4501 0,0 -361.28844,-38.7501 -380.38844,-41.6501 -0.7,-63.2 -10.1,-164.4 21.1,-329.5 15.3,-80.5 45.2,-167 46.3,-171.3 -29.7,5.3 -50.3,9.7 -113.1,17.8 -28.6,3.7 -105.3,13 -133.9,10.9 3,0.1 5.9,0.4 8.9,0.8 -11.5,0.1 -23.1,1 -34.6,1.2 15.1,-48.5 28,-80.3 63.4,-216.4 22.9,-88 56.5,-242.7 57,-254.7 0.2,0.5 0.4,1 0.7,1.5 1,-12.9 35.9,-181.8 44.6,-342.4 1.2,-5.4 0.7,-10.9 1.3,-16.3 0.6,-5.9 0.2,-11.9 1,-17.8 0.9,-6.9 0.2,-13.9 1.1,-20.7 0.8,-6.8 0.1,-13.7 0.8,-20.4 0.6,-5.4 0.4,-10.8 0.2,-16.3 1.2,-28.1 6,-113.3 5,-122.6 0.3,2.6 0.6,5.2 1,7.8 -0.6,-42.1 20.3,-253.7 20.3,-253.8 0.3,0.9 0.5,1.9 0.8,2.8 -0.2,-9.4 9.9,-80.6 11.3,-89.8 C 327.7,358.7 724.2,49 1233.5,6.4 c 10.8,0.2 21.5,-1.8 32.3,-1.7 5.4,0.1 10.7,-1 16,-1 0.1,-0.1 111.8,-4.9 193.4,1.3 z"
   id="path8"
   sodipodi:nodetypes="ccccccccccccccccccccccccccccccczcccccccccccccccccccccccccc"
   style="stroke:none" /><path
   id="path164"
   class="st3"
   d="m 398.8601,2378.2479 c 92.8,37.5 195.041,77.3042 292.041,101.7042 C 685.4011,2489.7521 522,2622.6 514.5,2940.9 485.4,2938.7 304,2918.4 275.2,2915.2 266.7,2614.4 397.8601,2389.9479 398.8601,2378.2479 Z m 1605.4334,90.3776 c 97.8,-24.8 212.5746,-64.7426 307.3746,-99.3426 18.8,47.2 121.2319,263.1171 114.6319,545.7171 -59.9,5.6 -243.1,24.3 -249.4,24.2 1,-84.2 -9.9,-174.4 -35,-254.9 -39.2,-125.9 -132.6065,-209.1745 -137.6065,-215.6745 z"
   style="stroke:none" /><path
   class="st3"
   d="m 383.8,739.8 c 2.3,-5.1 3.6,-10.6 6.3,-15.5 1.6,4.6 -2.3,7.6 -1,74.6 2.1,110.7 27.4,220.3 69.1,322.7 33,81 79.8,158 86.1,165.5 0.5,11.4 3.2,26.4 4.5,38.6 4.3,41.8 20.3,118.8 22.5,126.1 29.3,126.1 85.2,268 176.3,358.6 -179.2,118.7 -441.2,589.2 -443.9,589.7 -61.6,11.3 -123.3,22.8 -185.6,29.6 -6.3,0.7 -12.6,1.9 -19,1.8 11.2,-41 61.7,-210.5 99.6,-422.3 36.1,-202 38.8,-307.1 44.3,-434.5 12,-281.6 40.8,-571.1 140.8,-834.9 z"
   id="path18"
   sodipodi:nodetypes="cccccccccccccc"
   style="stroke:none" /><path
   class="st3"
   d="m 2234.7,519.9 c 27.6,43.8 62.8,110.3 93.4,185.4 143.7,352.1 146.8,747.2 160.7,999.5 18.4,333.9 126.7,704.4 128.9,721.6 -115.9,-16.1 -224.5,-50.5 -233.3,-52.6 1,-0.5 2.1,-0.9 3.2,-1.3 -29,-86.2 -359.2,-488.8 -474.5,-542.2 31.2,-31.4 62.4,-63.8 101.7,-144.6 32.8,-67.5 57.8,-147.9 72.8,-220 17.2,-83 29.1,-181.9 27.9,-198.3 0,-2 1.9,-3.4 2.8,-5.1 12.3,-22.6 24.6,-45.2 35.6,-68.5 58.7,-124.4 100.5,-276.7 106.3,-422.9 6.1,-157.3 -26.2,-241.9 -25.5,-251 z"
   id="path16"
   sodipodi:nodetypes="cccccccccccccc"
   style="stroke:none" /><path
   class="st3"
   d="m 1947.4,2506.6 c 7.5,6.2 15.3,12.2 22.1,19.2 2.5,2.1 1.5,-96.2 1.4,2198.3 0.2,2.4 -2.8,1.7 -4.3,2 -0.1,0 -1232.3,1.3 -1245.6,-0.2 0,-0.1 0.3,-2181.8 2.1,-2191.1 2.2,-4.3 6.7,-6.6 9.9,-10 4.7,-5 10.4,-8.9 15.1,-13.9 125.1,27.3 1074.4,22.2 1199.3,-4.3 z"
   id="path184"
   sodipodi:nodetypes="ccccccccc"
   style="stroke:none" /><path
   d="m 747.6,1810.3 1165.6,19.7 c 115.3,53.3 214.9,135.5 297.1,235 85.3,103.1 148.4,221.1 177.4,307.2 -846.2844,300.1647 -1300.4127,301.8015 -2067.1,1.5 2.4,-7.2 5.1,-14.3 7.7,-21.4 88.6,-238 242.6,-424.9 419.3,-542 z"
   id="path62"
   style="font-variation-settings:normal;opacity:1;vector-effect:none;fill:#c0c0c0;fill-opacity:1;stroke:none;stroke-width:2;stroke-linecap:butt;stroke-linejoin:miter;stroke-miterlimit:4;stroke-dasharray:none;stroke-dashoffset:0;stroke-opacity:1;-inkscape-stroke:none;stop-color:#000000;stop-opacity:1"
   sodipodi:nodetypes="ccccccc" /><path
   class="st5"
   d="m 788.9,1847 1078,21.4 c 181.1587,52.4231 361.4686,290.7928 430.8,426.9 7.6,15.4 15.5,30.8 21.7,46.9 -649.7134,210.3364 -1143.5738,327.8409 -1932.4,4 1.9,-8.2 70.1,-193.7 221.1,-349.4 88,-90.7 169.9,-145.4 180.8,-149.8 z"
   id="path64"
   sodipodi:nodetypes="ccccccc"
   style="stroke:none" /><path
   class="st9"
   d="m 2115.1,1085.2074 c 11.0899,156.1169 -7.9287,264.717 -12.7,297.3926 -4.7713,32.6756 -28.6,180.8 -88,303 -35,72 -62.6,105.2 -101.7,144.6 -66.6,59.8 -118.4,87.2 -186.9,115.9 -53.3,22.4 -111.7,38.2 -167.3,48.4 -340.5,62.5 -585.9,-48.3 -600.1,-52.65 -14.2,-4.35 -22.4,-8.45 -31,-11.65 -11.8,-5.9 -75.4,-32.8 -138.7,-83.2 -118.8,-94.5 -183.1,-246.6 -217.6,-395.2 -2.1,-6.8 -18,-82.8 -22.5,-126.1 -1.3,-12.7 1.42129,-208.0453 0.82129,-220.8453 z"
   id="path52"
   sodipodi:nodetypes="czcccczcccccc"
   style="stroke:none" /><path
   class="st3"
   d="m 1312.8,76 c 278.2,-17.2 531.5,60.4 735.6,263.2 13.8,13.8 39.7,43.4 55.7,64.2 9.1,13.5 2.3,0.6 29.5,42.4 29.7,65.4 46.7,136.2 53.5,207.6 24.2,255.4 -78.2,462.1 -80,475 h -0.9 c 0.6,-101.3 -1555,-217.8 -1558.7,-86.7 -0.4,15.5 -0.7,31.1 -0.6,46.6 -1.8,3.5 -2.1,7.5 -2.6,11.3 -1.1,8.7 -2.7,17.3 -3.3,26 -0.1,1.7 -0.2,3.4 -0.7,5 -0.3,1.9 -1.9,-0.2 -2,-1 -119.2,-263 -116.1,-588.1 95.6,-786.4 60.6,-56.7 131.8,-107.4 234,-154.8 91.3,-42.4 201.7,-77.8 313.3,-97.7 43.3,-7.5 87.4,-11.9 131.6,-14.7 z"
   id="path10"
   sodipodi:nodetypes="ccccccccccccccccc"
   style="stroke:none" /><path
   class="st6"
   d="m 2050.5867,934.05953 c 3.4106,267.06467 -6.5348,364.27937 -8.5867,376.24047 -2.0519,11.9611 -16.4,207.5 -101.3,367 -11.7,22 -24.5,43.4 -40.1,62.9 -106.5,134 -313.7,193 -482.5,201.1 0.9,0.3 1.9,0.6 2.8,0.9 -14.9,-1.5 -4.5,2.1 -96.8,1.1 -8.6,-0.1 -17.3,-0.8 -25.9,-0.2 1.2,-0.3 2.5,-0.6 3.8,-0.8 -26.1,-0.2 -126.3,-7.5 -223.9,-33.5 -107.8,-28.7 -223.1,-81.6 -296.5,-164.7 -61.8,-70 -104.3,-170.1 -129.4,-259.5 -25.9,-92 -39.5,-194.2 -45.4,-289.1 -0.5,-8.7 -2.71065,-257.57954 -2.21065,-266.27954 L 1364.1371,587.03457 Z"
   id="path20"
   sodipodi:nodetypes="czcccccccccccccc"
   style="stroke:none" /><path
   d="m 1933.8,680.7 c 56,44.5 108.6,93.8 153.3,149.7 1.8,2.3 4.6,4.3 4.6,7.5 22.9,228.4 30.8745,246.1593 27.5745,364.5593 l -69.4875,-14.5241 C 2024.3134,1132.4199 1953.95,1055.45 1893.1,999.8 1818,931.1 1704.6,848.2 1613.1,806.4 c -85.4,-39 -174.6,-59.6 -258.4,-63.7 -110.5,-5.4 -229.2,12.1 -382.5,90.6 -130.4,66.7 -241.5,162.7 -319.4,267 -16.5,22.1 -32.5,44.8 -45.7,69.1 -2.4,4.4 -5,8.7 -7,13.3 -40.4,-6.4 -44.4,-6.3 -51.3,-8.4 -0.2,-23.6 -5.4,-117.8 2.2,-209.9 6.2,-75.4 13.2,-100.5 19.6,-145.7 0.1,-4.3 3.9,-7 6.4,-9.9 C 651.9,723.3 742.3,652.2 839.5,593.4 1168.3,394.1 1616,428 1933.8,680.7 Z"
   id="path12"
   style="font-variation-settings:normal;opacity:1;vector-effect:none;fill:#c0c0c0;fill-opacity:1;stroke:none;stroke-width:2;stroke-linecap:butt;stroke-linejoin:miter;stroke-miterlimit:4;stroke-dasharray:none;stroke-dashoffset:0;stroke-opacity:1;-inkscape-stroke:none;stop-color:#000000;stop-opacity:1" /><path
   class="st9"
   d="m 1036.3,1583.2 c 10.6,-2.2 21.9,1.1 30.1,8 70.4,59.2 158.5,101.1 250.4,101.1 15.3,0 30.6,-0.1 45.8,-2.2 77.6,-10.9 152.3,-43.2 212.6,-91.8 6.1,-4.9 11.6,-11.3 19.4,-13.6 14.8,-5.8 32.7,0.5 41.3,13.8 8.8,13.5 7.9,33.3 -7.3,46.3 -80.2,68.3 -179.6,107.4 -260.8,115.4 -133.8,13.2 -242.3,-31.2 -346.9,-115.6 -21.5,-17.5 -14.6,-55.3 15.4,-61.4 z"
   id="path56"
   style="stroke:none" /><path
   class="st5"
   d="m 1219.8,521.9 c 45.8,-5.6 120.8,-5.6 136,-4.1 251,11 496.9,120.7 683.1,336.9 2.6,2.7 2.4,6.6 2.9,10.1 6.2,69.8 10.2,119.7 11.6,187.1 0.3,17.6 1.1,35.3 0.2,52.9 -84.5,-118.1 -177.4,-199.6 -302.1,-280.6 -32.4,-21 -65.5,-41.1 -100.3,-58 -114.3,-55.4 -227.7,-80.1 -352.2,-77.1 -189.5,4.5 -389,98.6 -531.4,216.2 -103.3,85.3 -163.8,174 -168,178.5 -0.9,-44.3 2.3,-98.8 6.2,-140.2 1.4,-6.3 1.3,-30.7 15.3,-104.9 7.4,-9.2 16,-17.4 24.2,-25.9 73.3,-75.7 158.4,-139.9 250.3,-191.5 144.9,-81.4 284.8,-93.9 294.5,-96.1 9.8,-0.8 19.7,-2.7 29.7,-3.3 z"
   id="path14"
   style="stroke:none" /><path
   class="st9"
   d="m 778.7,1073.8 -2.7,3.9 c 0.4,-1.8 0.9,-3.5 1.4,-5.2 l 9,-17.3 c 6.7,-12.2 14.3,-24 22.9,-34.8 l 16.2,-18.3 c 13.7,-13.3 28.1,-24.8 47.6,-33.2 41,-17.6 86.4,-27.6 130.9,-21.7 20,2.7 40.5,7.5 57.3,19.2 5.3,3.7 10.6,8.2 12.7,14.5 1.2,3.6 -0.5,7.5 -3.5,9.5 -16,10.8 -58.5,0.3 -76.6,-3.6 -58.7,-12.6 -114.7,-0.9 -165.6,35.5 l -15.8,13.1 c -8.3,7.4 -16.1,15.4 -23.2,23.9 z"
   id="path2733"
   sodipodi:nodetypes="cccccccccscccccc"
   style="font-variation-settings:normal;opacity:1;vector-effect:none;fill:#5e3116;fill-opacity:1;stroke:none;stroke-width:2;stroke-linecap:butt;stroke-linejoin:miter;stroke-miterlimit:4;stroke-dasharray:none;stroke-dashoffset:0;stroke-opacity:1;-inkscape-stroke:none;stop-color:#000000;stop-opacity:1" /><path
   d="m 809.4,967.7 c 0.4,-3.6 2.1,-7.2 5.6,-8.6 6,-3 13.5,3.2 12,9.7 -2.3,13.4 -2.9,42.6 1.2,53.5 -0.9,5.2 8.2,36.4 27.3,57.7 27.4,-30.9 68,-49.2 109.3,-49.9 78.1,-1.5 145.7,57.7 153,136.7 8,86 -58.1,159.1 -138,164.2 -105.2,6.7 -175.1,-82 -160.8,-176.1 1.1,-7.2 3.7,-14.1 4.9,-21.3 -6.3,-0.4 -12.5,0 -18.8,-0.8 -38.4,-4.5 -72.8,-23.1 -99.9,-57.4 -2.4,-3.1 -5.7,-6.4 -4.8,-10.7 0.7,-6.4 9.3,-9.7 14,-5.5 3.2,2.8 22.2,31.4 56.5,46.5 18.2,8 38.3,10.9 58,10.2 1.7,0.1 2.8,-1.1 4,-2.1 -8.1,-4.7 -31.7,-13.2 -54.2,-40 l -1.3,-1.3 c -14.5,-17.9 -25.1,-38.8 -31.4,-60.9 -1.2,-3.3 -0.4,-7.1 2.3,-9.5 4.2,-3.8 12.3,-2.3 14.1,3.3 6.3,20.5 14.2,37.1 27.1,53.9 14.5,18.8 36.1,33 52.5,38.5 0.6,-1.3 1.7,-2.5 1.8,-4 -1.5,-3.1 -20.5,-21.3 -30,-55.2 l -1.2,-3.3 c -2.8,-15.3 -7.8,-24.7 -3.2,-67.6 z"
   id="path28"
   style="font-variation-settings:normal;opacity:1;vector-effect:none;fill:#8b5d38;fill-opacity:1;stroke:none;stroke-width:2;stroke-linecap:butt;stroke-linejoin:miter;stroke-miterlimit:4;stroke-dasharray:none;stroke-dashoffset:0;stroke-opacity:1;-inkscape-stroke:none;stop-color:#000000;stop-opacity:1" /><path
   class="st8"
   d="m 1820.9,1022.5 c -29.7,-22.7 -66,-37 -103.3,-39.8 -54.6,-4 -77.4,12.3 -115.9,12.4 -7.8,0 -15.9,-0.5 -22.8,-4.5 -2.2,-1.6 -4.2,-4 -4.1,-6.8 -2.2,-24.3 98.1,-66.1 209.2,-11.3 15.1,7.5 28.5,18.1 40.3,30.1 l 16.1,18.6 c 8.7,10.7 16.2,22.4 22.6,34.7 l 8.9,17.1 c 0.6,1.6 1.2,3.2 1.8,4.9 -1,-1.1 -2,-2.2 -3,-3.2 l -10.6,-15.2 c -7.2,-8.3 -14.7,-16.4 -22.8,-23.7 z"
   id="path26"
   sodipodi:nodetypes="ccccccccccccccc"
   style="stroke:none" /><path
   d="m 957.1,1048.2 c 5.9,-0.6 11.9,-1.2 17.8,-0.3 59.1,2.4 111.2,46.9 123.1,104.8 0.8,6 2.8,11.9 2.6,18 5,56.4 -29.4,111.8 -81.5,133 -107.3,43.8 -212,-57.8 -178.4,-163.2 12.9,-40.4 45.9,-73.8 86.4,-86.6 9.6,-3 19.7,-5.4 30,-5.7 z"
   id="path42"
   style="font-variation-settings:normal;opacity:1;vector-effect:none;fill:#131212;fill-opacity:1;stroke:none;stroke-width:2;stroke-linecap:butt;stroke-linejoin:miter;stroke-miterlimit:4;stroke-dasharray:none;stroke-dashoffset:0;stroke-opacity:1;-inkscape-stroke:none;stop-color:#000000;stop-opacity:1" /><path
   class="st11"
   d="m 992.4,1069.6 c 19.9,-5.2 42.3,2.5 55,18.7 23.7,30.1 8.5,75.4 -29.5,84.5 -20.4,4.9 -43.1,-3.5 -55.4,-20.5 -21.1,-29 -8,-72.9 29.9,-82.7 z"
   id="path46"
   style="stroke:none" /><path
   d="m 1823.4,963.6 c 1.6,-3.4 5.5,-5.8 9.3,-5.1 3.9,0.7 7.2,4.2 7.6,8.2 0.8,9.3 2.1,18.7 1.9,28.1 0.3,8.9 -1.1,17.6 -1.8,26.4 -0.4842,5.1263 -1.6842,10.1895 -3.1,14.6 -5.7,16 -11.3,34.2 -30.6,57 -1.9,1.7 1,6 3.4,4.5 24.5,-10.3 39.1,-24 52.9,-41.4 11.6,-14.7 19.1,-32.3 24.4,-50.2 0.7,-2.9 3.5,-4.3 5.7,-6 3.9,3.5 7.6,7.2 11.4,10.9 -3.6,9.6 -10.7,36 -32.6,62.4 l -1.2,1.7 c -15,15.9 -25.1,25.2 -53.9,39.2 1.1,0.8 2.2,2.2 3.8,2.1 8.8,0.6 17.6,-0.1 26.4,-1.1 34.5,-3.9 67,-26.7 85.3,-52.2 2.4,-3.4 6.8,-6.4 11.1,-4.6 3.9,1 6.4,5 5.9,8.9 0.1,3.1 -2.3,5.4 -3.9,7.7 -33,41.9 -76.8,60.4 -119.8,59 32.1,106 -46.8,199.2 -146.9,197.7 -48,-0.7 -93.3,-25.1 -121.1,-65.5 -42.2,-61.3 -33.3,-147.7 26,-199.1 63.1,-54.7 158.1,-46.4 210.5,13.2 8.9,-8.7 24.1263,-33.7 27.8263,-56.8 l 0.7737,-4.3 c 4.8,-29.3 -1.5,-49.1 0.7,-55.3 z"
   id="path30"
   style="font-variation-settings:normal;opacity:1;vector-effect:none;fill:#8b5d38;fill-opacity:1;stroke:none;stroke-width:2;stroke-linecap:butt;stroke-linejoin:miter;stroke-miterlimit:4;stroke-dasharray:none;stroke-dashoffset:0;stroke-opacity:1;-inkscape-stroke:none;stop-color:#000000;stop-opacity:1" /><path
   d="m 1671,1048.2 c 4.9,-0.3 9.8,-1.2 14.7,-0.6 8,0.8 16.1,0.6 23.9,2.9 80.6,16.3 126.3,103.7 97.3,177.3 -19.4,49.2 -66,85.5 -124.2,86.3 -5,-0.9 -10,-0.5 -15,-0.9 -72.1,-6 -130.5,-77.1 -116.7,-155.5 10.5,-60.3 62.3,-105.8 120,-109.5 z"
   id="path44"
   style="font-variation-settings:normal;opacity:1;vector-effect:none;fill:#131212;fill-opacity:1;stroke:none;stroke-width:2;stroke-linecap:butt;stroke-linejoin:miter;stroke-miterlimit:4;stroke-dasharray:none;stroke-dashoffset:0;stroke-opacity:1;-inkscape-stroke:none;stop-color:#000000;stop-opacity:1" /><path
   class="st11"
   d="m 1676.5,1088.6 c 13.1,-16.8 36.4,-24.6 57,-18.5 17,5 30.8,18.8 36.1,35.7 8.8,28.5 -9.3,60.7 -38.9,67 -23,6.4 -52.3,-6.1 -62.2,-33.8 -6,-16.8 -2.9,-36.3 8,-50.4 z"
   id="path48"
   style="stroke:none" /></svg>
